<?xml version="1.0" encoding="iso-8859-1"?>
<!-- Uploaded to: SVG Repo, www.svgrepo.com, Generator: SVG Repo Mixer Tools -->
<svg fill="#000000" height="800px" width="800px" version="1.1" id="Layer_1" xmlns="http://www.w3.org/2000/svg" xmlns:xlink="http://www.w3.org/1999/xlink" 
	 viewBox="0 0 512 512" xml:space="preserve">
<g transform="translate(1 1)">
	<g>
		<g>
			<path d="M58.733,24.6C39.96,24.6,24.6,39.96,24.6,58.733s15.36,34.133,34.133,34.133s34.133-15.36,34.133-34.133
				S77.507,24.6,58.733,24.6z M58.733,75.8c-9.387,0-17.067-7.68-17.067-17.067s7.68-17.067,17.067-17.067S75.8,49.347,75.8,58.733
				S68.12,75.8,58.733,75.8z"/>
			<path d="M135.533,24.6c-18.773,0-34.133,15.36-34.133,34.133s15.36,34.133,34.133,34.133c18.773,0,34.133-15.36,34.133-34.133
				S154.307,24.6,135.533,24.6z M135.533,75.8c-9.387,0-17.067-7.68-17.067-17.067s7.68-17.067,17.067-17.067
				s17.067,7.68,17.067,17.067S144.92,75.8,135.533,75.8z"/>
			<path d="M212.333,24.6c-18.773,0-34.133,15.36-34.133,34.133s15.36,34.133,34.133,34.133c18.773,0,34.133-15.36,34.133-34.133
				S231.107,24.6,212.333,24.6z M212.333,75.8c-9.387,0-17.067-7.68-17.067-17.067s7.68-17.067,17.067-17.067
				c9.387,0,17.067,7.68,17.067,17.067S221.72,75.8,212.333,75.8z"/>
			<path d="M161.133,161.133H50.2c-5.12,0-8.533,3.413-8.533,8.533S45.08,178.2,50.2,178.2h110.933c5.12,0,8.533-3.413,8.533-8.533
				S166.253,161.133,161.133,161.133z"/>
			<path d="M280.6,178.2c5.12,0,8.533-3.413,8.533-8.533s-3.413-8.533-8.533-8.533h-85.333c-5.12,0-8.533,3.413-8.533,8.533
				s3.413,8.533,8.533,8.533H280.6z"/>
			<path d="M331.8,178.2c5.12,0,8.533-3.413,8.533-8.533s-3.413-8.533-8.533-8.533h-17.067c-5.12,0-8.533,3.413-8.533,8.533
				s3.413,8.533,8.533,8.533H331.8z"/>
			<path d="M383,203.8c0-5.12-3.413-8.533-8.533-8.533h-128c-5.12,0-8.533,3.413-8.533,8.533c0,5.12,3.413,8.533,8.533,8.533h128
				C379.587,212.333,383,208.92,383,203.8z"/>
			<path d="M84.333,203.8c0,5.12,3.413,8.533,8.533,8.533h119.467c5.12,0,8.533-3.413,8.533-8.533c0-5.12-3.413-8.533-8.533-8.533
				H92.867C87.747,195.267,84.333,198.68,84.333,203.8z"/>
			<path d="M50.2,212.333h8.533c5.12,0,8.533-3.413,8.533-8.533c0-5.12-3.413-8.533-8.533-8.533H50.2
				c-5.12,0-8.533,3.413-8.533,8.533C41.667,208.92,45.08,212.333,50.2,212.333z"/>
			<path d="M50.2,246.467H127c5.12,0,8.533-3.413,8.533-8.533S132.12,229.4,127,229.4H50.2c-5.12,0-8.533,3.413-8.533,8.533
				S45.08,246.467,50.2,246.467z"/>
			<path d="M178.2,229.4h-17.067c-5.12,0-8.533,3.413-8.533,8.533s3.413,8.533,8.533,8.533H178.2c5.12,0,8.533-3.413,8.533-8.533
				S183.32,229.4,178.2,229.4z"/>
			<path d="M340.333,237.933c0-5.12-3.413-8.533-8.533-8.533H212.333c-5.12,0-8.533,3.413-8.533,8.533s3.413,8.533,8.533,8.533
				H331.8C336.92,246.467,340.333,243.053,340.333,237.933z"/>
			<path d="M50.2,280.6h110.933c5.12,0,8.533-3.413,8.533-8.533c0-5.12-3.413-8.533-8.533-8.533H50.2
				c-5.12,0-8.533,3.413-8.533,8.533C41.667,277.187,45.08,280.6,50.2,280.6z"/>
			<path d="M280.6,263.533h-85.333c-5.12,0-8.533,3.413-8.533,8.533c0,5.12,3.413,8.533,8.533,8.533H280.6
				c5.12,0,8.533-3.413,8.533-8.533C289.133,266.947,285.72,263.533,280.6,263.533z"/>
			<path d="M289.133,306.2c0-5.12-3.413-8.533-8.533-8.533h-34.133c-5.12,0-8.533,3.413-8.533,8.533s3.413,8.533,8.533,8.533H280.6
				C285.72,314.733,289.133,311.32,289.133,306.2z"/>
			<path d="M220.867,306.2c0-5.12-3.413-8.533-8.533-8.533H92.867c-5.12,0-8.533,3.413-8.533,8.533s3.413,8.533,8.533,8.533h119.467
				C217.453,314.733,220.867,311.32,220.867,306.2z"/>
			<path d="M50.2,314.733h8.533c5.12,0,8.533-3.413,8.533-8.533s-3.413-8.533-8.533-8.533H50.2c-5.12,0-8.533,3.413-8.533,8.533
				S45.08,314.733,50.2,314.733z"/>
			<path d="M50.2,348.867H127c5.12,0,8.533-3.413,8.533-8.533c0-5.12-3.413-8.533-8.533-8.533H50.2c-5.12,0-8.533,3.413-8.533,8.533
				C41.667,345.453,45.08,348.867,50.2,348.867z"/>
			<path d="M161.133,331.8c-5.12,0-8.533,3.413-8.533,8.533c0,5.12,3.413,8.533,8.533,8.533H178.2c5.12,0,8.533-3.413,8.533-8.533
				c0-5.12-3.413-8.533-8.533-8.533H161.133z"/>
			<path d="M280.6,340.333c0-5.12-3.413-8.533-8.533-8.533h-59.733c-5.12,0-8.533,3.413-8.533,8.533c0,5.12,3.413,8.533,8.533,8.533
				h59.733C277.187,348.867,280.6,345.453,280.6,340.333z"/>
			<path d="M50.2,383h110.933c5.12,0,8.533-3.413,8.533-8.533s-3.413-8.533-8.533-8.533H50.2c-5.12,0-8.533,3.413-8.533,8.533
				S45.08,383,50.2,383z"/>
			<path d="M246.467,374.467c0-5.12-3.413-8.533-8.533-8.533h-42.667c-5.12,0-8.533,3.413-8.533,8.533s3.413,8.533,8.533,8.533
				h42.667C243.053,383,246.467,379.587,246.467,374.467z"/>
			<path d="M220.867,408.6c0-5.12-3.413-8.533-8.533-8.533H92.867c-5.12,0-8.533,3.413-8.533,8.533s3.413,8.533,8.533,8.533h119.467
				C217.453,417.133,220.867,413.72,220.867,408.6z"/>
			<path d="M50.2,417.133h8.533c5.12,0,8.533-3.413,8.533-8.533s-3.413-8.533-8.533-8.533H50.2c-5.12,0-8.533,3.413-8.533,8.533
				S45.08,417.133,50.2,417.133z"/>
			<path d="M50.2,451.267H127c5.12,0,8.533-3.413,8.533-8.533S132.12,434.2,127,434.2H50.2c-5.12,0-8.533,3.413-8.533,8.533
				S45.08,451.267,50.2,451.267z"/>
			<path d="M161.133,434.2c-5.12,0-8.533,3.413-8.533,8.533s3.413,8.533,8.533,8.533H178.2c5.12,0,8.533-3.413,8.533-8.533
				s-3.413-8.533-8.533-8.533H161.133z"/>
			<path d="M212.333,451.267H229.4c5.12,0,8.533-3.413,8.533-8.533s-3.413-8.533-8.533-8.533h-17.067
				c-5.12,0-8.533,3.413-8.533,8.533S207.213,451.267,212.333,451.267z"/>
			<path d="M16.067,480.28V118.467h477.867V331.8H511V118.467V101.4V23.747C511,10.093,499.907-1,487.107-1H23.747
				C10.093-1-1,10.093-1,23.747V101.4v17.067V480.28C-1,497.347,12.653,511,29.72,511h319.147v-17.067H29.72
				C22.04,493.933,16.067,487.96,16.067,480.28z M16.067,23.747c0-4.267,3.413-7.68,7.68-7.68h462.507c4.267,0,7.68,3.413,7.68,7.68
				V101.4H16.067V23.747z"/>
			<path d="M508.44,496.493l-57.742-57.742l55.182-27.591l-150.187-55.467L411.16,505.88l27.591-55.182l57.742,57.742
				c1.707,1.707,3.413,2.56,5.973,2.56s4.267-0.853,5.973-2.56C511.853,505.027,511.853,499.907,508.44,496.493z M383.853,383.853
				l78.507,29.013l-33.28,16.213l-16.213,33.28L383.853,383.853z"/>
		</g>
	</g>
</g>
</svg>